<?xml version="1.0" encoding="utf-8"?>
<!-- Generator: Adobe Illustrator 21.1.0, SVG Export Plug-In . SVG Version: 6.00 Build 0)  -->
<svg version="1.1" id="Capa_1" xmlns="http://www.w3.org/2000/svg" xmlns:xlink="http://www.w3.org/1999/xlink" x="0px" y="0px"
	 viewBox="0 0 61.2 61.2" style="enable-background:new 0 0 61.2 61.2;" xml:space="preserve">
	 <style type="text/css">
		path{fill:#FFFFFF;}
	 </style>
	<path class="rond" d="M30.9,26.6c3.9,0,7-3.1,7-7s-3.1-7-7-7s-7,3.1-7,7S27.1,26.6,30.9,26.6z M30.9,14.6c2.8,0,5,2.2,5,5
		c0,2.8-2.2,5-5,5c-2.8,0-5-2.2-5-5C25.9,16.8,28.2,14.6,30.9,14.6z"/>
	<path d="M30.8,55.3l11-15.8l1.4-2l3-4.4c5.8-7.7,4.9-20.3-1.8-27c-3.6-3.6-8.4-5.6-13.6-5.6c-5.1,0-9.9,2-13.6,5.6
		c-6.7,6.7-7.5,19.3-1.8,27l3,4.4l1.9,2.7L30.8,55.3z M17,32c-5.2-6.9-4.5-18.3,1.6-24.4c3.2-3.2,7.6-5,12.1-5
		c4.6,0,8.9,1.8,12.1,5c6,6,6.8,17.4,1.6,24.4L30.8,51.8l-9.9-14.2L17,32z"/>
	 <rect y="57.2" class="st0" width="61.2" height="5.5"/>
</svg>
